<svg xmlns="http://www.w3.org/2000/svg" xmlns:xlink="http://www.w3.org/1999/xlink" version="1.1" style="enable-background:new 0 0 28.937 28.937;" xml:space="preserve" width="28.937" height="28.937"><rect id="backgroundrect" width="100%" height="100%" x="0" y="0" fill="none" stroke="none"/>
















<g class="currentLayer" style=""><title>Layer 1</title><g id="svg_1" class="selected" fill="#f26a7c" fill-opacity="1">
	<path d="M28.859,26.124L14.957,2.245c-0.101-0.173-0.287-0.279-0.489-0.279c-0.198,0-0.383,0.106-0.481,0.279L0.079,26.124   c-0.102,0.175-0.106,0.389-0.006,0.565c0.103,0.174,0.287,0.282,0.488,0.282h27.814c0.201,0,0.389-0.108,0.488-0.282   c0.047-0.088,0.074-0.186,0.074-0.281C28.938,26.309,28.911,26.211,28.859,26.124z M16.369,10.441l-0.462,9.493h-2.389   l-0.461-9.493H16.369z M14.711,24.794h-0.042c-1.089,0-1.843-0.817-1.843-1.907c0-1.131,0.774-1.907,1.885-1.907   s1.846,0.775,1.867,1.907C16.579,23.977,15.844,24.794,14.711,24.794z" id="svg_2" fill="#f26a7c" fill-opacity="1"/>
	<g id="svg_3" fill="#f26a7c" fill-opacity="1">
	</g>
	<g id="svg_4" fill="#f26a7c" fill-opacity="1">
	</g>
	<g id="svg_5" fill="#f26a7c" fill-opacity="1">
	</g>
	<g id="svg_6" fill="#f26a7c" fill-opacity="1">
	</g>
	<g id="svg_7" fill="#f26a7c" fill-opacity="1">
	</g>
	<g id="svg_8" fill="#f26a7c" fill-opacity="1">
	</g>
	<g id="svg_9" fill="#f26a7c" fill-opacity="1">
	</g>
	<g id="svg_10" fill="#f26a7c" fill-opacity="1">
	</g>
	<g id="svg_11" fill="#f26a7c" fill-opacity="1">
	</g>
	<g id="svg_12" fill="#f26a7c" fill-opacity="1">
	</g>
	<g id="svg_13" fill="#f26a7c" fill-opacity="1">
	</g>
	<g id="svg_14" fill="#f26a7c" fill-opacity="1">
	</g>
	<g id="svg_15" fill="#f26a7c" fill-opacity="1">
	</g>
	<g id="svg_16" fill="#f26a7c" fill-opacity="1">
	</g>
	<g id="svg_17" fill="#f26a7c" fill-opacity="1">
	</g>
</g><g id="svg_18">
</g><g id="svg_19">
</g><g id="svg_20">
</g><g id="svg_21">
</g><g id="svg_22">
</g><g id="svg_23">
</g><g id="svg_24">
</g><g id="svg_25">
</g><g id="svg_26">
</g><g id="svg_27">
</g><g id="svg_28">
</g><g id="svg_29">
</g><g id="svg_30">
</g><g id="svg_31">
</g><g id="svg_32">
</g></g></svg>