<svg enable-background="new 0 0 60 52" height="512" viewBox="0 0 60 52" width="512" xmlns="http://www.w3.org/2000/svg"><path d="m30 34c-4.411 0-8-3.589-8-8s3.589-8 8-8 8 3.589 8 8-3.589 8-8 8zm0-14c-3.308 0-6 2.691-6 6s2.692 6 6 6 6-2.691 6-6-2.692-6-6-6z"/><path d="m54 12c-3.308 0-6-2.691-6-6s2.692-6 6-6 6 2.691 6 6-2.692 6-6 6zm0-10c-2.206 0-4 1.794-4 4s1.794 4 4 4 4-1.794 4-4-1.794-4-4-4z"/><path d="m6 52c-3.308 0-6-2.691-6-6s2.692-6 6-6 6 2.691 6 6-2.692 6-6 6zm0-10c-2.206 0-4 1.794-4 4s1.794 4 4 4 4-1.794 4-4-1.794-4-4-4z"/><path d="m8 21c-2.206 0-4-1.794-4-4s1.794-4 4-4 4 1.794 4 4-1.794 4-4 4zm0-6c-1.103 0-2 .897-2 2s.897 2 2 2 2-.897 2-2-.897-2-2-2z"/><path d="m28 10c-2.206 0-4-1.794-4-4s1.794-4 4-4 4 1.794 4 4-1.794 4-4 4zm0-6c-1.103 0-2 .897-2 2s.897 2 2 2 2-.897 2-2-.897-2-2-2z"/><path d="m46 43c-2.206 0-4-1.794-4-4s1.794-4 4-4 4 1.794 4 4-1.794 4-4 4zm0-6c-1.103 0-2 .897-2 2s.897 2 2 2 2-.897 2-2-.897-2-2-2z"/><path d="m29.999 20c-.467 0-.885-.329-.979-.804l-2-10c-.108-.542.243-1.068.784-1.177.543-.108 1.068.243 1.177.784l2 10c.108.542-.243 1.068-.784 1.177-.067.014-.133.02-.198.02z"/><path d="m35.377 22.519c-.286 0-.571-.123-.769-.36-.354-.424-.296-1.055.128-1.408l14.783-12.318c.424-.354 1.055-.297 1.408.128.354.424.296 1.055-.128 1.408l-14.782 12.318c-.187.156-.414.232-.64.232z"/><path d="m9.978 43.974c-.283 0-.563-.119-.761-.351-.358-.42-.308-1.051.112-1.41l14.646-12.493c.42-.359 1.051-.309 1.41.112.358.42.308 1.051-.112 1.41l-14.647 12.492c-.188.161-.418.24-.648.24z"/><path d="m23.52 24.35c-.126 0-.254-.024-.378-.075l-12.746-5.214c-.511-.209-.756-.793-.547-1.304s.792-.753 1.304-.547l12.746 5.214c.511.209.756.793.547 1.304-.158.387-.532.622-.926.622z"/><path d="m43.806 37.958c-.218 0-.437-.071-.621-.217l-8.325-6.607c-.433-.343-.505-.972-.162-1.405.343-.434.972-.506 1.405-.162l8.325 6.607c.433.343.505.972.162 1.405-.197.249-.489.379-.784.379z"/></svg>