<svg id="Layer_1" enable-background="new 0 0 512 512" height="512" viewBox="0 0 512 512" width="512" xmlns="http://www.w3.org/2000/svg"><g><path d="m110 36h292v400h-292z" fill="#cecdf3"/><path d="m150 76h212v320h-212z" fill="#fff"/><path d="m90 116h60v40h-60z" fill="#e6e6f9"/><path d="m90 316h60v40h-60z" fill="#e6e6f9"/><g><path d="m322 126h-132c-5.523 0-10-4.478-10-10s4.477-10 10-10h132c5.522 0 10 4.478 10 10s-4.478 10-10 10z" fill="#cecdf3"/></g><g><path d="m322 366h-132c-5.523 0-10-4.478-10-10s4.477-10 10-10h132c5.522 0 10 4.478 10 10s-4.478 10-10 10z" fill="#cecdf3"/></g><g fill="#ffee80"><path d="m402 356h100v40h-100z"/><path d="m402 396h100v40h-100z"/><path d="m402 436h100v40h-100z"/><path d="m302 436h100v40h-100z"/><path d="m302 396h100v40h-100z"/><g><path d="m10 396h100v40h-100z" transform="matrix(-1 0 0 -1 120 832)"/><path d="m10 436h100v40h-100z" transform="matrix(-1 0 0 -1 120 912)"/><path d="m110 436h100v40h-100z" transform="matrix(-1 0 0 -1 320 912)"/></g></g><circle cx="256" cy="236" fill="#cecdf3" r="20"/><g fill="#8481e2"><path d="m502 346h-90v-310c0-5.522-4.478-10-10-10h-292c-5.523 0-10 4.478-10 10v70h-10c-5.523 0-10 4.478-10 10v40c0 5.523 4.477 10 10 10h10v140h-10c-5.523 0-10 4.478-10 10v40c0 5.522 4.477 10 10 10h10v20h-90c-5.523 0-10 4.478-10 10v80c0 5.522 4.477 10 10 10h200c5.523 0 10-4.478 10-10v-30h72v30c0 5.522 4.478 10 10 10h200c5.522 0 10-4.478 10-10v-120c0-5.522-4.478-10-10-10zm-342-260h192v300h-192zm232 320v20h-80v-20zm20 0h80v20h-80zm80-40v20h-80v-20zm-372-320h272v340h-20v-310c0-5.522-4.478-10-10-10h-212c-5.523 0-10 4.478-10 10v30h-20zm-20 80h40v20h-40zm20 40h20v140h-20zm-20 160h40v20h-40zm0 80v20h-80v-20zm-80 40h80v20h-80zm180 20h-80v-20h80zm-80-40v-60h20v30c0 5.522 4.477 10 10 10h142v20zm192 20h80v20h-80zm100 20v-20h80v20z"/><path d="m299.301 211c-2.761-4.781-8.878-6.421-13.66-3.66l-10.165 5.869c-2.77-2.371-5.973-4.247-9.475-5.489v-11.72c0-5.523-4.478-10-10-10-5.523 0-10 4.477-10 10v11.72c-3.503 1.242-6.705 3.118-9.475 5.489l-10.166-5.869c-4.783-2.761-10.899-1.122-13.66 3.66-2.762 4.783-1.122 10.898 3.66 13.66l10.152 5.861c-.33 1.778-.51 3.607-.51 5.479s.181 3.701.51 5.479l-10.152 5.861c-4.783 2.762-6.422 8.877-3.66 13.66 1.852 3.208 5.213 5.002 8.669 5.002 1.696 0 3.416-.433 4.991-1.342l10.166-5.869c2.77 2.371 5.973 4.247 9.475 5.489v11.72c0 5.522 4.477 10 10 10 5.522 0 10-4.478 10-10v-11.72c3.503-1.242 6.705-3.118 9.475-5.489l10.165 5.869c1.575.909 3.294 1.342 4.99 1.342 3.456 0 6.817-1.794 8.67-5.002 2.762-4.783 1.123-10.898-3.66-13.66l-10.151-5.861c.33-1.778.51-3.607.51-5.479s-.181-3.701-.51-5.479l10.151-5.861c4.783-2.762 6.422-8.877 3.66-13.66zm-53.301 25c0-5.514 4.486-10 10-10s10 4.486 10 10-4.486 10-10 10-10-4.486-10-10z"/></g></g></svg>