<svg height="512" viewBox="0 0 512 512" width="512" xmlns="http://www.w3.org/2000/svg"><g><g><path d="m496 112c0-8.84-10.75-16-24-16s-24 7.16-24 16c0-8.84-18.75-16-32-16s-32 7.16-32 16c0-8.84-10.75-16-24-16s-24 7.16-24 16a80 80 0 0 1 160 0z" fill="#ff9811"/><rect fill="#787680" height="112" rx="24" width="336" x="16" y="272"/><circle cx="56" cy="328" fill="#91cc04" r="16"/><circle cx="112" cy="328" fill="#ffda44" r="16"/><circle cx="168" cy="328" fill="#ff9811" r="16"/><rect fill="#898890" height="112" rx="24" width="336" x="16" y="384"/><circle cx="56" cy="440" fill="#91cc04" r="16"/><circle cx="112" cy="440" fill="#ffda44" r="16"/><rect fill="#57565c" height="112" rx="24" width="336" x="16" y="160"/><circle cx="168" cy="440" fill="#ff9811" r="16"/><circle cx="56" cy="216" fill="#91cc04" r="16"/><circle cx="112" cy="216" fill="#ffda44" r="16"/><circle cx="168" cy="216" fill="#ff9811" r="16"/></g><g><path d="m32 328a24 24 0 1 0 24-24 24.027 24.027 0 0 0 -24 24zm24-8a8 8 0 1 1 -8 8 8.009 8.009 0 0 1 8-8z"/><path d="m112 352a24 24 0 1 0 -24-24 24.027 24.027 0 0 0 24 24zm0-32a8 8 0 1 1 -8 8 8.009 8.009 0 0 1 8-8z"/><path d="m168 352a24 24 0 1 0 -24-24 24.027 24.027 0 0 0 24 24zm0-32a8 8 0 1 1 -8 8 8.009 8.009 0 0 1 8-8z"/><path d="m248 328h80a8 8 0 0 0 0-16h-80a8 8 0 0 0 0 16z"/><path d="m328 336h-40a8 8 0 0 0 0 16h40a8 8 0 0 0 0-16z"/><path d="m216 328h8a8 8 0 0 0 0-16h-8a8 8 0 0 0 0 16z"/><path d="m360 248v-64a32.03 32.03 0 0 0 -32-32h-288a32.03 32.03 0 0 0 -32 32v64a31.92 31.92 0 0 0 10.87 24 31.92 31.92 0 0 0 -10.87 24v64a31.92 31.92 0 0 0 10.87 24 31.92 31.92 0 0 0 -10.87 24v64a32.03 32.03 0 0 0 32 32h288a32.03 32.03 0 0 0 32-32v-64a31.92 31.92 0 0 0 -10.87-24 31.92 31.92 0 0 0 10.87-24v-64a31.92 31.92 0 0 0 -10.87-24 31.92 31.92 0 0 0 10.87-24zm-16 224a16.021 16.021 0 0 1 -16 16h-288a16.021 16.021 0 0 1 -16-16v-64a16.021 16.021 0 0 1 16-16h288a16.021 16.021 0 0 1 16 16zm0-112a16.021 16.021 0 0 1 -16 16h-288a16.021 16.021 0 0 1 -16-16v-64a16.021 16.021 0 0 1 16-16h288a16.021 16.021 0 0 1 16 16zm0-112a16.021 16.021 0 0 1 -16 16h-288a16.021 16.021 0 0 1 -16-16v-64a16.021 16.021 0 0 1 16-16h288a16.021 16.021 0 0 1 16 16z"/><path d="m56 192a24 24 0 1 0 24 24 24.027 24.027 0 0 0 -24-24zm0 32a8 8 0 1 1 8-8 8.009 8.009 0 0 1 -8 8z"/><path d="m112 192a24 24 0 1 0 24 24 24.027 24.027 0 0 0 -24-24zm0 32a8 8 0 1 1 8-8 8.009 8.009 0 0 1 -8 8z"/><path d="m168 192a24 24 0 1 0 24 24 24.027 24.027 0 0 0 -24-24zm0 32a8 8 0 1 1 8-8 8.009 8.009 0 0 1 -8 8z"/><path d="m328 200h-80a8 8 0 0 0 0 16h80a8 8 0 0 0 0-16z"/><path d="m328 224h-40a8 8 0 0 0 0 16h40a8 8 0 0 0 0-16z"/><path d="m224 200h-8a8 8 0 0 0 0 16h8a8 8 0 0 0 0-16z"/><path d="m32 440a24 24 0 1 0 24-24 24.027 24.027 0 0 0 -24 24zm24-8a8 8 0 1 1 -8 8 8.009 8.009 0 0 1 8-8z"/><path d="m112 464a24 24 0 1 0 -24-24 24.027 24.027 0 0 0 24 24zm0-32a8 8 0 1 1 -8 8 8.009 8.009 0 0 1 8-8z"/><path d="m168 464a24 24 0 1 0 -24-24 24.027 24.027 0 0 0 24 24zm0-32a8 8 0 1 1 -8 8 8.009 8.009 0 0 1 8-8z"/><path d="m248 440h80a8 8 0 0 0 0-16h-80a8 8 0 0 0 0 16z"/><path d="m328 448h-40a8 8 0 0 0 0 16h40a8 8 0 0 0 0-16z"/><path d="m216 440h8a8 8 0 0 0 0-16h-8a8 8 0 0 0 0 16z"/><path d="m424 24.37v-8.37a8 8 0 0 0 -16 0v8.37a88.106 88.106 0 0 0 -80 87.63 8 8 0 0 0 16 0c0-3.26 6.23-8 16-8s16 4.74 16 8a8 8 0 0 0 15.99.33c1.16-2.19 7.99-5.82 16.01-7.47v71.14a12 12 0 0 1 -24 0 8 8 0 0 0 -16 0 28 28 0 0 0 56 0v-71.14c8.02 1.65 14.85 5.28 16.01 7.47a8 8 0 0 0 15.99-.33c0-3.26 6.23-8 16-8s16 4.74 16 8a8 8 0 0 0 16 0 88.106 88.106 0 0 0 -80-87.63zm48 63.63c-10.35 0-19.41 3.51-25.22 9.06a41.3 41.3 0 0 0 -6.49-3.65 57.234 57.234 0 0 0 -48.58 0 41.3 41.3 0 0 0 -6.49 3.65c-5.81-5.55-14.87-9.06-25.22-9.06a42.157 42.157 0 0 0 -12.51 1.84 72.007 72.007 0 0 1 137.02 0 42.157 42.157 0 0 0 -12.51-1.84z"/><path d="m184 136a8 8 0 0 0 8-8v-56h120a8 8 0 0 0 0-16h-128a8 8 0 0 0 -8 8v64a8 8 0 0 0 8 8z"/><path d="m472 128a8 8 0 0 0 -8 8v304h-88a8 8 0 0 0 0 16h96a8 8 0 0 0 8-8v-312a8 8 0 0 0 -8-8z"/></g></g></svg>