<svg id="Capa_1" enable-background="new 0 0 512 512" height="512" viewBox="0 0 512 512" width="512" xmlns="http://www.w3.org/2000/svg"><g><g><path d="m64 240h384c13.255 0 24 10.745 24 24v208c0 13.255-10.745 24-24 24h-384c-13.255 0-24-10.745-24-24v-208c0-13.255 10.745-24 24-24z" fill="#898890"/><path d="m112 216v-72c0-70.692 57.308-128 128-128h32c70.692 0 128 57.308 128 128v72h-32v-72c-.06-52.995-43.005-95.94-96-96h-32c-52.995.06-95.94 43.005-96 96v72z" fill="#ffda44"/><path d="m96 216h64v24h-64z" fill="#ff9811"/><path d="m352 216h64v24h-64z" fill="#ff9811"/><g fill="#ffda44"><path d="m80 272h24v24h-24z"/><path d="m408 440h24v24h-24z"/></g></g><g><path d="m136 320c-4.418 0-8 3.582-8 8v32h-32v-32c0-4.418-3.582-8-8-8s-8 3.582-8 8v80c0 4.418 3.582 8 8 8s8-3.582 8-8v-32h32v32c0 4.418 3.582 8 8 8s8-3.582 8-8v-80c0-4.418-3.582-8-8-8z"/><path d="m304 416c4.418 0 8-3.582 8-8v-32h40c4.418 0 8-3.582 8-8v-40c0-4.418-3.582-8-8-8h-48c-4.418 0-8 3.582-8 8v80c0 4.418 3.582 8 8 8zm8-80h32v24h-32z"/><path d="m208 320h-48c-4.418 0-8 3.582-8 8s3.582 8 8 8h16v72c0 4.418 3.582 8 8 8s8-3.582 8-8v-72h16c4.418 0 8-3.582 8-8s-3.582-8-8-8z"/><path d="m280 320h-48c-4.418 0-8 3.582-8 8s3.582 8 8 8h16v72c0 4.418 3.582 8 8 8s8-3.582 8-8v-72h16c4.418 0 8-3.582 8-8s-3.582-8-8-8z"/><path d="m448 232h-24v-16c0-4.418-3.582-8-8-8h-8v-64c0-74.99-61.01-136-136-136h-32c-74.99 0-136 61.01-136 136v64h-8c-4.418 0-8 3.582-8 8v16h-24c-17.665.02-31.98 14.335-32 32v208c.02 17.665 14.335 31.98 32 32h384c17.664-.023 31.977-14.336 32-32v-208c-.023-17.664-14.336-31.977-32-32zm-288-24h-8v-64c.055-48.578 39.422-87.945 88-88h32c48.578.055 87.945 39.422 88 88v64h-8c-4.418 0-8 3.582-8 8v16h-176v-16c0-4.418-3.582-8-8-8zm200 16h48v8h-48zm-240-80c.074-66.244 53.756-119.926 120-120h32c66.244.074 119.926 53.756 120 120v64h-16v-64c-.062-57.412-46.588-103.938-104-104h-32c-57.412.062-103.938 46.588-104 104v64h-16zm-16 80h48v8h-48zm360 248c-.012 8.832-7.168 15.988-16 16h-384c-8.832-.012-15.988-7.168-16-16v-208c.012-8.832 7.168-15.988 16-16h384c8.832.012 15.988 7.168 16 16z"/><path d="m432 368v40c0 4.418-3.582 8-8 8h-48c-4.418 0-8-3.582-8-8s3.582-8 8-8h40v-24h-40c-4.418 0-8-3.582-8-8v-40c0-4.418 3.582-8 8-8h48c4.418 0 8 3.582 8 8s-3.582 8-8 8h-40v24h40c4.418 0 8 3.582 8 8z"/><path d="m216 264h-88c-4.418 0-8 3.582-8 8s3.582 8 8 8h88c4.418 0 8-3.582 8-8s-3.582-8-8-8z"/><path d="m160 304c4.418 0 8-3.582 8-8s-3.582-8-8-8h-32c-4.418 0-8 3.582-8 8s3.582 8 8 8z"/><path d="m104 304c4.418 0 8-3.582 8-8v-24c0-4.418-3.582-8-8-8h-24c-4.418 0-8 3.582-8 8v24c0 4.418 3.582 8 8 8zm-16-24h8v8h-8z"/><path d="m384 456h-88c-4.418 0-8 3.582-8 8s3.582 8 8 8h88c4.418 0 8-3.582 8-8s-3.582-8-8-8z"/><path d="m384 432h-32c-4.418 0-8 3.582-8 8s3.582 8 8 8h32c4.418 0 8-3.582 8-8s-3.582-8-8-8z"/><path d="m432 432h-24c-4.418 0-8 3.582-8 8v24c0 4.418 3.582 8 8 8h24c4.418 0 8-3.582 8-8v-24c0-4.418-3.582-8-8-8zm-8 24h-8v-8h8z"/></g></g></svg>