<svg id="Layer_1" enable-background="new 0 0 512 512" height="512" viewBox="0 0 512 512" width="512" xmlns="http://www.w3.org/2000/svg"><g><path d="m10 306h400v80h-400z" fill="#fff"/><path d="m10 66h400v240h-400z" fill="#d0f2d2"/><g fill="#fff"><circle cx="210" cy="186" r="50"/><circle cx="111" cy="186" r="15"/><circle cx="311" cy="185" r="15"/></g><path d="m302 246c55.228-53.333 144.772-53.333 200 0v140l-100 60-100-60z" fill="#ffee80"/><path d="m372 316h60v50h-60z" fill="#fff"/><g fill="#5cd0b3"><path d="m508.947 238.807c-24.909-24.054-56.416-37.947-88.947-41.68v-131.127c0-5.522-4.477-10-10-10h-400c-5.523 0-10 4.478-10 10v320c0 5.522 4.477 10 10 10h289.23l97.625 58.575c1.583.95 3.364 1.425 5.145 1.425s3.561-.475 5.145-1.425l100-60c3.012-1.808 4.855-5.063 4.855-8.575v-140c0-2.713-1.102-5.309-3.053-7.193zm-108.947-162.807v120.119c-6.687.085-13.37.587-20 1.52v-71.639c0-2.652-1.054-5.195-2.929-7.071l-20-20c-1.876-1.875-4.419-2.929-7.071-2.929h-280c-2.652 0-5.196 1.054-7.071 2.929l-20 20c-1.875 1.876-2.929 4.419-2.929 7.071v120c0 2.652 1.054 5.195 2.929 7.071l20 20c1.875 1.875 4.419 2.929 7.071 2.929h222v20h-272v-220zm-380 240h272v20h-272zm275.053-77.193c-1.951 1.885-3.053 4.48-3.053 7.193v10h-217.858l-14.142-14.143v-111.714l14.143-14.143h271.715l14.142 14.143v71.664c-23.796 6.602-46.234 18.929-64.947 37zm-275.053 117.193h272v20h-272zm472 24.338-90 54-90-54v-130.001c50.487-45.74 129.513-45.74 180 0z"/><path d="m372 296v10c-5.523 0-10 4.478-10 10v50c0 5.522 4.477 10 10 10h60c5.523 0 10-4.478 10-10v-50c0-5.522-4.477-10-10-10v-10c0-16.542-13.458-30-30-30s-30 13.458-30 30zm50 60h-40v-30h40zm-10-60v10h-20v-10c0-5.514 4.486-10 10-10s10 4.486 10 10z"/></g></g></svg>