<svg id="Capa_1" enable-background="new 0 0 512 512" height="512" viewBox="0 0 512 512" width="512" xmlns="http://www.w3.org/2000/svg"><g><path d="m406 270v156h-300v-156c0-82.71 67.29-150 150-150s150 67.29 150 150z" fill="#f97658"/><path d="m406 270v156h-151v-305.99c77.433-2.348 151 63.174 151 149.99z" fill="#e25c3d"/><path d="m436 421h-360c-8.284 0-15 6.716-15 15v61c0 8.284 6.716 15 15 15h360c8.284 0 15-6.716 15-15v-61c0-8.284-6.716-15-15-15z" fill="#f2f2fc"/><path d="m451 436v61c0 8.28-6.72 15-15 15h-181v-91h181c8.28 0 15 6.72 15 15z" fill="#e3e3f9"/><path d="m255 0c-8.284 0-15 6.716-15 15v60c0 8.284 6.716 15 15 15s15-6.716 15-15v-60c0-8.284-6.716-15-15-15z" fill="#ff8a66"/><path d="m270 15v60c0 8.28-6.72 15-15 15v-90c8.28 0 15 6.72 15 15z" fill="#f97658"/><path d="m132.874 44.24c-4.143-7.175-13.316-9.632-20.49-5.49-7.175 4.142-9.633 13.316-5.49 20.49l30 51.961c4.155 7.197 13.336 9.62 20.49 5.49 7.175-4.142 9.633-13.316 5.49-20.49z" fill="#ff8a66"/><path d="m80.702 168.126-51.962-30c-7.175-4.143-16.349-1.685-20.49 5.49-4.143 7.174-1.685 16.348 5.49 20.49l51.962 30c7.143 4.125 16.33 1.715 20.49-5.49 4.143-7.174 1.685-16.348-5.49-20.49z" fill="#ff8a66"/><g fill="#f97658"><path d="m399.616 38.75c-7.174-4.144-16.349-1.685-20.49 5.49l-30 51.961c-4.143 7.174-1.685 16.348 5.49 20.49 7.143 4.125 16.33 1.715 20.49-5.49l30-51.961c4.143-7.174 1.685-16.348-5.49-20.49z"/><path d="m503.75 143.616c-4.143-7.175-13.315-9.631-20.49-5.49l-51.962 30c-7.175 4.142-9.633 13.316-5.49 20.49 4.155 7.197 13.336 9.62 20.49 5.49l51.962-30c7.175-4.142 9.633-13.315 5.49-20.49z"/></g></g></svg>